<svg xmlns="http://www.w3.org/2000/svg" baseProfile="basic" viewBox="0 0 100 100"><path d="M89.972,12.006C88.932,11.348,87.731,11,86.5,11c-0.963,0-1.931,0.219-2.804,0.636L52,26.79	L20.288,11.628c-0.866-0.41-1.83-0.627-2.788-0.627c-1.229,0-2.427,0.346-3.465,1C12.135,13.199,11,15.254,11,17.5v69	c0,3.584,2.916,6.5,6.5,6.5h69c3.584,0,6.5-2.916,6.5-6.5v-69C93,15.254,91.865,13.199,89.972,12.006z" opacity=".35"/><path fill="#f2f2f2" d="M87.972,10.006C86.932,9.348,85.731,9,84.5,9c-0.963,0-1.931,0.219-2.804,0.636L50,24.79	L18.288,9.628c-0.866-0.41-1.83-0.627-2.788-0.627c-1.229,0-2.427,0.346-3.465,1C10.135,11.199,9,13.254,9,15.5v69	c0,3.584,2.916,6.5,6.5,6.5h69c3.584,0,6.5-2.916,6.5-6.5v-69C91,13.254,89.865,11.199,87.972,10.006z"/><polygon fill="#96c362" points="50,31.995 15.5,15.5 15.5,84.5 50,84.5 84.5,84.5 84.5,15.5"/><path fill="#40396e" d="M84.5,86h-69c-0.828,0-1.5-0.672-1.5-1.5v-69c0-0.516,0.265-0.994,0.7-1.269s0.981-0.306,1.447-0.085	L50,30.332l33.853-16.185c0.465-0.222,1.012-0.19,1.447,0.085c0.436,0.274,0.7,0.753,0.7,1.269v69C86,85.329,85.328,86,84.5,86z M17,83h66V17.88L50.647,33.348c-0.41,0.195-0.885,0.195-1.295,0L17,17.88V83z"/><path fill="#ffc7a3" d="M77.318,51.525c-0.741,2.376-2.202,5.151-7.774,6.371c-3.797,0.832-4.52-4.703-4.572-6.553	c-0.09-3.198,0.773-6.213,3.054-8.03C71.919,40.212,80.352,41.797,77.318,51.525z"/><path fill="#40396e" d="M73.24,41.389c1.562,0.123,3.581,0.634,4.897,2.754c1.177,1.897,3.239,6.146-3.137,11.228	c3-4.5-0.286-5.734-1.113-4.462c-0.932-7.832-6.975-7.156-8.092-4.578C66.24,43.35,69.06,41.061,73.24,41.389z"/><rect width="6" height="6.488" x="69" y="54.506" fill="#ffc7a3" transform="rotate(-180 72 57.75)"/><path fill="#ffc7a3" d="M22.682,51.525c0.741,2.376,2.202,5.151,7.774,6.371c3.797,0.832,4.52-4.703,4.572-6.553	c0.09-3.198-0.773-6.213-3.054-8.03C28.081,40.212,19.648,41.797,22.682,51.525z"/><path fill="#40396e" d="M26.76,41.389c-1.562,0.123-3.581,0.634-4.897,2.754C20.685,46.04,18.624,50.289,25,55.371	c-3-4.5,0.286-5.734,1.113-4.462c0.932-7.832,6.975-7.156,8.092-4.578C33.76,43.35,30.94,41.061,26.76,41.389z"/><rect width="6" height="6.488" x="25" y="54.506" fill="#ffc7a3"/><path fill="#ffb789" d="M56,76.995h-4.5c-1.381,0-2.5-1.119-2.5-2.5s1.119-2.5,2.5-2.5H56V76.995z"/><path fill="#ffc7a3" d="M48.5,76.995H44v-5h4.5c1.381,0,2.5,1.119,2.5,2.5S49.881,76.995,48.5,76.995z"/><path fill="#f4665c" d="M74,59.995h-4c-1.507,0-2.842,0.681-3.759,1.735c-0.092,0.092-0.184,0.185-0.263,0.294l-7.252,9.971	H55v5h5c0.8,0,1.552-0.383,2.021-1.029L65,71.87v11.125h14v-18C79,62.233,76.761,59.995,74,59.995z"/><path fill="#2785bd" d="M41.273,71.995l-7.252-9.971c-0.078-0.108-0.169-0.201-0.261-0.292	c-0.917-1.056-2.253-1.737-3.761-1.737h-4c-2.761,0-5,2.239-5,5v18h14V71.87l2.979,4.095c0.47,0.646,1.222,1.029,2.021,1.029h5v-5	H41.273z"/></svg>