<svg xmlns="http://www.w3.org/2000/svg" baseProfile="basic" viewBox="0 0 100 100"><path d="M62.5,8h-41c-3.584,0-6.5,2.916-6.5,6.5v73c0,3.584,2.916,6.5,6.5,6.5h59c3.584,0,6.5-2.916,6.5-6.5	v-54c0-1.67-0.633-3.258-1.781-4.47L67.224,10.035C66.002,8.742,64.28,8,62.5,8z" opacity=".35"/><path fill="#f2f2f2" d="M60.5,6h-41C15.916,6,13,8.916,13,12.5v73c0,3.584,2.916,6.5,6.5,6.5h59c3.584,0,6.5-2.916,6.5-6.5	v-54c0-1.67-0.633-3.258-1.781-4.47L65.224,8.035C64.002,6.742,62.28,6,60.5,6z"/><polygon fill="#d9eeff" points="19.5,12.5 60.5,12.5 78.5,31.5 78.5,85.5 19.5,85.5"/><path fill="#70bfff" d="M60,14v16c0,1.105,0.895,2,2,2h15L60,14z"/><path fill="#40396e" d="M78.5,87h-59c-0.828,0-1.5-0.672-1.5-1.5v-73c0-0.828,0.672-1.5,1.5-1.5h41	c0.412,0,0.806,0.169,1.089,0.469l18,19C79.853,30.747,80,31.116,80,31.5v54C80,86.328,79.328,87,78.5,87z M21,84h56V32.098	L59.854,14H21V84z"/><polygon fill="#f9b84f" points="65,52.995 50,43.495 35,52.995 35,71.995 45,71.995 55,71.995 65,71.995"/><polygon fill="#e66f2e" points="50,40.995 31.939,51.995 32,56.995 50,45.995 68.061,56.995 68,51.995"/><rect width="10" height="11.995" x="45" y="60" fill="#e66f2e"/></svg>