<svg xmlns="http://www.w3.org/2000/svg" viewBox="0 0 100 100"><path fill-opacity=".3" d="M19.5,95c-3.584,0-6.5-2.916-6.5-6.5V50.822c-0.492,0.116-1,0.177-1.507,0.177	c-1.201,0-2.375-0.33-3.395-0.955C6.13,48.791,5,46.736,5,44.5v-8c0-2.361,1.28-4.536,3.34-5.675L48.788,7.814	C49.775,7.256,50.882,6.966,52,6.966s2.225,0.29,3.199,0.841l40.514,23.048C97.72,31.964,99,34.139,99,36.5v8	c0,2.237-1.131,4.293-3.025,5.498c-1.094,0.671-2.268,1.001-3.468,1.001c-0.507,0-1.014-0.061-1.507-0.178V88.5	c0,3.584-2.916,6.5-6.5,6.5H19.5z"/><path fill="#f2f2f2" d="M17.5,93c-3.584,0-6.5-2.916-6.5-6.5V48.822c-0.492,0.116-1,0.177-1.507,0.177	c-1.201,0-2.375-0.33-3.395-0.955C4.13,46.791,3,44.736,3,42.5v-8c0-2.361,1.28-4.536,3.34-5.675L46.788,5.814	C47.775,5.256,48.882,4.966,50,4.966s2.225,0.29,3.199,0.841l40.514,23.048C95.72,29.964,97,32.139,97,34.5v8	c0,2.237-1.131,4.293-3.025,5.498c-1.094,0.671-2.268,1.001-3.468,1.001c-0.507,0-1.014-0.061-1.507-0.178V86.5	c0,3.584-2.916,6.5-6.5,6.5H17.5z"/><polygon fill="#96c362" points="90.5,34.5 50,11.462 9.5,34.5 9.5,42.5 17.5,38.5 17.5,86.5 82.5,86.5 82.5,38.5 90.5,42.5"/><polygon fill="#40396e" points="50,22.506 84,41 82.985,37.078 50,19 17.044,37.069 16,41" opacity=".35"/><polygon fill="#407845" points="9.5,34.5 10,40.981 17.006,37.087 50,18.981 82.985,37.078 90,40.981 90.5,34.5 50,11.462"/><path fill="#40396e" d="M82.5,88h-65c-0.829,0-1.5-0.672-1.5-1.5V40.927l-5.829,2.915c-0.466,0.23-1.019,0.206-1.459-0.065	C8.269,43.503,8,43.02,8,42.5v-8c0-0.539,0.29-1.037,0.758-1.304l40.5-23.038c0.46-0.262,1.023-0.262,1.483,0l40.5,23.038	C91.711,33.463,92,33.961,92,34.5v8c0,0.52-0.27,1.003-0.711,1.276c-0.442,0.272-0.995,0.297-1.46,0.065L84,40.927V86.5	C84,87.328,83.328,88,82.5,88z M19,85h62V38.5c0-0.52,0.27-1.003,0.711-1.276c0.443-0.273,0.994-0.297,1.46-0.065L89,40.073v-4.701	L50,13.188L11,35.372v4.701l5.829-2.915c0.464-0.232,1.017-0.208,1.459,0.065S19,37.98,19,38.5V85z"/><path fill="#f2f2f2" d="M49.901,74.96c-0.694,0-1.268-0.233-1.721-0.7s-0.68-1.033-0.68-1.7V70.2	c-1.547-0.107-2.914-0.354-4.1-0.74c-1.188-0.386-2.194-0.793-3.021-1.22c-0.747-0.373-1.214-0.9-1.399-1.58	c-0.188-0.68-0.154-1.333,0.1-1.96c0.253-0.626,0.68-1.08,1.28-1.36c0.6-0.28,1.313-0.22,2.14,0.18c0.64,0.348,1.533,0.7,2.68,1.061	s2.547,0.54,4.2,0.54c1.839,0,3.146-0.293,3.919-0.88s1.16-1.32,1.16-2.2c0-0.72-0.267-1.32-0.8-1.8	c-0.534-0.48-1.494-0.866-2.879-1.16l-4.4-0.96c-4.854-1.066-7.28-3.653-7.28-7.76c0-2.24,0.761-4.134,2.28-5.681	c1.521-1.546,3.561-2.52,6.12-2.92v-2.52c0-0.666,0.227-1.233,0.68-1.7c0.453-0.466,1.026-0.7,1.721-0.7	c0.666,0,1.225,0.234,1.679,0.7c0.453,0.467,0.68,1.034,0.68,1.7v2.399c0.986,0.134,2.007,0.374,3.061,0.721	c1.053,0.347,1.979,0.8,2.779,1.359c0.641,0.4,1.033,0.914,1.181,1.54c0.146,0.627,0.086,1.221-0.181,1.78s-0.699,0.954-1.3,1.18	c-0.6,0.228-1.327,0.127-2.18-0.3c-0.72-0.346-1.507-0.64-2.36-0.88s-1.906-0.36-3.16-0.36c-1.547,0-2.76,0.32-3.64,0.96	c-0.88,0.641-1.32,1.467-1.32,2.48c0,0.72,0.261,1.313,0.78,1.78c0.521,0.467,1.434,0.847,2.74,1.14L53.1,54	c2.533,0.56,4.406,1.474,5.62,2.74s1.82,2.887,1.82,4.859c0,2.268-0.767,4.134-2.3,5.601c-1.534,1.467-3.527,2.413-5.98,2.84v2.52	c0,0.667-0.227,1.233-0.68,1.7C51.126,74.727,50.567,74.96,49.901,74.96z"/></svg>