<svg xmlns="http://www.w3.org/2000/svg" baseProfile="basic" viewBox="0 0 100 100"><path d="M95.714,30.85L55.211,7.811C54.233,7.255,53.123,6.962,52,6.962s-2.233,0.293-3.214,0.851	L8.279,30.853C6.257,32.008,5,34.171,5,36.5v8c0,2.267,1.15,4.332,3.092,5.534c1.025,0.631,2.204,0.964,3.409,0.964	c0.503,0,1.006-0.06,1.499-0.176V88.5c0,3.584,2.916,6.5,6.5,6.5h65c3.584,0,6.5-2.916,6.5-6.5V50.824	c0.491,0.116,0.996,0.176,1.5,0.176h0.001c1.208,0,2.39-0.336,3.421-0.974C97.85,48.833,99,46.767,99,44.5v-8	C99,34.171,97.743,32.008,95.714,30.85z" opacity=".35"/><path fill="#f2f2f2" d="M93.714,28.85L53.211,5.811C52.233,5.255,51.123,4.962,50,4.962s-2.233,0.293-3.214,0.851	L6.279,28.853C4.257,30.008,3,32.171,3,34.5v8c0,2.267,1.15,4.332,3.092,5.534c1.025,0.631,2.204,0.964,3.409,0.964	c0.503,0,1.006-0.06,1.499-0.176V86.5c0,3.584,2.916,6.5,6.5,6.5h65c3.584,0,6.5-2.916,6.5-6.5V48.824	c0.491,0.116,0.996,0.176,1.5,0.176h0.001c1.208,0,2.39-0.336,3.421-0.974C95.85,46.833,97,44.767,97,42.5v-8	C97,32.171,95.743,30.008,93.714,28.85z"/><polygon fill="#d9eeff" points="90.5,34.5 50,11.462 9.5,34.5 9.5,42.5 17.5,38.5 17.5,86.5 82.5,86.5 82.5,38.5 90.5,42.5"/><polygon fill="#40396e" points="16,41 17.044,37.069 50,19 82.985,37.078 84,41 50,22.506" opacity=".35"/><polygon fill="#ff7575" points="9.5,34.5 10,40.981 17.006,37.087 50,18.981 82.985,37.078 90,40.981 90.5,34.5 50,11.462"/><path fill="#5d5dab" d="M44.51,60.158l0.621,18.023c0.102,1.05,0.943,1.848,1.947,1.848h5.536 c1.029,0,1.883-0.838,1.953-1.917l0.917-17.954H44.51z"/><path fill="#ff7575" d="M55.032,43.364l-2.896-1.061H47.87l-2.896,1.018c-2.239,0.61-3.809,1.812-3.809,4.328v0.859 l3.312,1.371l0.041,10.276h10.965V49.878l3.427-1.371V47.71C58.909,45.166,57.304,43.947,55.032,43.364z"/><path fill="#ffc7a3" d="M42.784,63.581L42.784,63.581c-0.935,0-1.693-0.67-1.693-1.805V48.508l3.386,1.371v11.898 C44.476,62.912,43.718,63.581,42.784,63.581z"/><path fill="#ffc7a3" d="M57.196,63.581L57.196,63.581c-0.946,0-1.713-0.723-1.713-1.859V49.878l3.427-1.371v13.215 C58.909,62.858,58.142,63.581,57.196,63.581z"/><rect width="4.112" height="4.179" x="47.944" y="38.123" fill="#ffc7a3"/><path fill="#ffc7a3" d="M50.685,30.063V30.05C50.461,30.02,50.233,30,50,30s-0.461,0.02-0.685,0.05v0.013 c-2.322,0.305-4.112,2.102-4.112,4.296c0,1.275,0.126,1.916,0.388,2.999c0.249,1.028,0.607,2.018,1.46,2.723l0.639,0.475 c0.481,0.367,1.043,0.583,1.625,0.682v0.005c0.043,0.008,0.086,0.004,0.129,0.011c0.185,0.025,0.369,0.047,0.556,0.046 c0.187,0.001,0.371-0.021,0.556-0.046c0.043-0.006,0.086-0.003,0.129-0.011v-0.005c0.582-0.099,1.145-0.315,1.625-0.682 l0.639-0.475c0.853-0.705,1.211-1.695,1.46-2.723c0.262-1.083,0.388-1.724,0.388-2.999C54.797,32.165,53.007,30.367,50.685,30.063z"/><path fill="#40396e" d="M50,30c-2.649,0-4.797,1.952-4.797,4.359c0,0.042,0.003,0.086,0.003,0.128 c2.794-0.097,4.873-1.541,6.095-2.691c0.5,1.122,1.682,3.203,3.486,2.978c0.003-0.139,0.01-0.28,0.01-0.416 C54.797,31.952,52.649,30,50,30z"/><path fill="#40396e" d="M82.5,88h-65c-0.829,0-1.5-0.672-1.5-1.5V40.927l-5.829,2.915c-0.465,0.23-1.018,0.206-1.459-0.065	C8.269,43.503,8,43.02,8,42.5v-8c0-0.539,0.29-1.037,0.758-1.304l40.5-23.038c0.46-0.262,1.023-0.262,1.483,0l40.5,23.038	C91.71,33.463,92,33.961,92,34.5v8c0,0.52-0.269,1.003-0.711,1.276c-0.442,0.272-0.994,0.297-1.459,0.065L84,40.927V86.5	C84,87.328,83.329,88,82.5,88z M19,85h62V38.5c0-0.52,0.269-1.003,0.711-1.276c0.441-0.273,0.995-0.297,1.459-0.065L89,40.073	v-4.701L50,13.188L11,35.372v4.701l5.829-2.915c0.465-0.232,1.018-0.208,1.459,0.065C18.731,37.497,19,37.98,19,38.5V85z"/></svg>