<svg xmlns="http://www.w3.org/2000/svg" baseProfile="basic" viewBox="0 0 100 100"><path d="M92.5,51c1.203,0,2.382-0.334,3.422-0.974C97.85,48.833,99,46.767,99,44.5v-8	c0-2.334-1.261-4.5-3.286-5.649L55.218,7.815C54.239,7.257,53.127,6.962,52,6.962s-2.239,0.295-3.214,0.851L8.291,30.848	C6.261,32,5,34.166,5,36.5v8c0,2.267,1.15,4.333,3.089,5.534C9.115,50.666,10.294,51,11.499,51c0.504,0,1.009-0.061,1.501-0.177	V88.5c0,3.584,2.916,6.5,6.5,6.5h41.927C65.2,98.197,70.034,99.995,75,99.995c11.579,0,21-9.421,21-21c0-4.969-1.8-9.806-5-13.58	V50.824C91.491,50.94,91.996,51,92.5,51z" opacity=".35"/><path fill="#f2f2f2" d="M90.5,49c1.203,0,2.382-0.334,3.422-0.974C95.85,46.833,97,44.767,97,42.5v-8	c0-2.334-1.261-4.5-3.286-5.649L53.218,5.815C52.239,5.257,51.127,4.962,50,4.962s-2.239,0.295-3.214,0.851L6.291,28.848	C4.261,30,3,32.166,3,34.5v8c0,2.267,1.15,4.333,3.089,5.534C7.115,48.666,8.294,49,9.499,49c0.504,0,1.009-0.061,1.501-0.177V86.5	c0,3.584,2.916,6.5,6.5,6.5h41.927C63.2,96.197,68.034,97.995,73,97.995c11.579,0,21-9.421,21-21c0-4.969-1.8-9.806-5-13.58V48.824	C89.491,48.94,89.996,49,90.5,49z"/><polygon fill="#d9eeff" points="90.5,34.5 50,11.462 9.5,34.5 9.5,42.5 17.5,38.5 17.5,86.5 82.5,86.5 82.5,38.5 90.5,42.5"/><polygon fill="#ff7575" points="9.5,34.5 10,40.981 17.006,37.087 50,18.981 82.985,37.078 90,40.981 90.5,34.5 50,11.462"/><polygon fill="#40396e" points="16,41 17.044,37.069 50,19 82.985,37.078 84,41 50,22.506" opacity=".35"/><rect width="8" height="8" x="25" y="50" fill="#70bfff"/><rect width="8" height="8" x="36" y="50" fill="#70bfff"/><rect width="8" height="8" x="36" y="61" fill="#70bfff"/><rect width="8" height="8" x="25" y="61" fill="#70bfff"/><rect width="26" height="36.5" x="50" y="50" fill="#ff7575"/><path fill="#40396e" d="M82.5,64.142c-2.659-1.969-5.938-3.147-9.5-3.147c-8.837,0-16,7.163-16,16	c0,3.565,1.18,6.846,3.151,9.505H82.5V64.142z" opacity=".35"/><circle cx="73" cy="76.995" r="13" fill="#ffc571"/><circle cx="73" cy="76.995" r="10" fill="#ffe385"/><path fill="#40396e" d="M73,92.995c-4.389,0-8.576-1.812-11.596-4.994H17.5c-0.828,0-1.5-0.672-1.5-1.5V40.927l-5.829,2.915	c-0.466,0.231-1.018,0.207-1.46-0.065C8.27,43.503,8,43.02,8,42.5v-8c0-0.539,0.289-1.037,0.759-1.304l40.5-23.038	c0.459-0.262,1.023-0.262,1.482,0l40.5,23.038C91.711,33.463,92,33.961,92,34.5v8c0,0.52-0.27,1.003-0.711,1.276	c-0.443,0.272-0.995,0.297-1.46,0.065L84,40.927v24.466c3.187,3.021,5,7.21,5,11.602C89,85.817,81.822,92.995,73,92.995z M19,85	h43.067c0.434,0,0.847,0.188,1.132,0.516c2.477,2.846,6.049,4.479,9.801,4.479c7.168,0,13-5.832,13-13	c0-3.754-1.635-7.328-4.484-9.806C81.188,66.904,81,66.492,81,66.057V38.5c0-0.52,0.27-1.003,0.711-1.276	c0.443-0.272,0.994-0.297,1.46-0.065L89,40.074v-4.701L50,13.188L11,35.373v4.701l5.829-2.915c0.465-0.232,1.017-0.207,1.46,0.065	C18.73,37.498,19,37.981,19,38.5V85z"/><path fill="#fff" d="M73.313,84.495c-0.273,0-0.499-0.092-0.676-0.276c-0.179-0.183-0.268-0.407-0.268-0.669v-0.929	c-0.609-0.042-1.146-0.139-1.613-0.291c-0.468-0.152-0.864-0.312-1.188-0.48c-0.294-0.147-0.478-0.354-0.551-0.622	c-0.073-0.268-0.061-0.525,0.039-0.771c0.1-0.246,0.268-0.425,0.503-0.535c0.236-0.11,0.517-0.086,0.843,0.071	c0.252,0.136,0.603,0.276,1.055,0.417c0.451,0.141,1.002,0.212,1.652,0.212c0.724,0,1.238-0.115,1.543-0.346	c0.304-0.231,0.456-0.52,0.456-0.866c0-0.283-0.105-0.52-0.315-0.709c-0.209-0.188-0.588-0.341-1.134-0.456l-1.731-0.378	c-1.91-0.42-2.865-1.437-2.865-3.054c0-0.881,0.3-1.625,0.897-2.235c0.599-0.608,1.401-0.991,2.408-1.149v-0.991	c0-0.262,0.089-0.485,0.268-0.67c0.178-0.183,0.403-0.275,0.676-0.275c0.262,0,0.482,0.091,0.661,0.275	c0.179,0.184,0.268,0.407,0.268,0.67v0.944c0.388,0.053,0.789,0.147,1.204,0.283c0.414,0.136,0.779,0.314,1.094,0.535	c0.252,0.158,0.406,0.359,0.464,0.605c0.058,0.247,0.034,0.48-0.071,0.701c-0.105,0.22-0.275,0.375-0.511,0.464	c-0.236,0.089-0.523,0.05-0.858-0.118c-0.283-0.136-0.593-0.252-0.929-0.346c-0.335-0.095-0.75-0.142-1.243-0.142	c-0.609,0-1.087,0.126-1.432,0.378c-0.346,0.252-0.52,0.577-0.52,0.976c0,0.283,0.103,0.517,0.307,0.7	c0.205,0.183,0.564,0.333,1.078,0.449l1.747,0.378c0.996,0.221,1.734,0.58,2.211,1.079c0.477,0.499,0.716,1.136,0.716,1.912	c0,0.892-0.302,1.627-0.905,2.204c-0.603,0.577-1.388,0.95-2.353,1.117v0.992c0,0.261-0.089,0.485-0.268,0.669	S73.576,84.495,73.313,84.495z"/></svg>