<svg xmlns="http://www.w3.org/2000/svg" viewBox="0 0 100 100"><path fill-opacity=".3" d="M14.5,95c-1.739,0-3.373-0.679-4.602-1.911C8.679,91.873,8,90.239,8,88.5l0.007-16.424	c-0.654-0.153-1.283-0.407-1.865-0.756C4.186,70.119,3,67.996,3,65.75V57c0-2.415,1.325-4.617,3.459-5.748l32.523-17.013	c0.934-0.486,1.975-0.741,3.018-0.741c0.002,0,0.003,0,0.005,0L42,25.503c0-2.24,1.131-4.296,3.025-5.501L66.078,6.969	c1.063-0.643,2.23-0.967,3.422-0.967s2.358,0.324,3.374,0.938l21.048,13.029C95.869,21.207,97,23.263,97,25.5v63	c0,3.584-2.916,6.5-6.5,6.5H14.5z"/><path fill="#f2f2f2" d="M12.5,93c-1.739,0-3.373-0.679-4.602-1.911C6.679,89.873,6,88.239,6,86.5l0.007-16.424	c-0.654-0.153-1.283-0.407-1.865-0.756C2.186,68.119,1,65.996,1,63.75V55c0-2.415,1.325-4.617,3.459-5.748l32.523-17.013	c0.934-0.486,1.975-0.741,3.018-0.741c0.002,0,0.003,0,0.005,0L40,23.503c0-2.24,1.131-4.296,3.025-5.501L64.078,4.969	c1.063-0.643,2.23-0.967,3.422-0.967s2.358,0.324,3.374,0.938l21.048,13.029C93.869,19.207,95,21.263,95,23.5v63	c0,3.584-2.916,6.5-6.5,6.5H12.5z"/><polygon fill="#de5147" points="46.361,23.5 67.18,10.5 88.5,23.5 88.5,86.5 46.361,86.5"/><polygon fill="#40396e" points="73,57 73,67 69,65 69,86.5 62,86.5 62,51.25" opacity=".35"/><polygon fill="#d9eeff" points="12.5,55.82 12.5,86.5 66,86.5 66,55.82 39.728,43.5"/><polygon fill="#40396e" points="11,60 14,62 40,49.5 66,63 66,59.628 40,45.5" opacity=".35"/><polygon fill="#ff7575" points="7.5,56.683 7.442,62.135 40,45.548 70,61.795 70,55.448 40,39.683"/><rect width="18" height="23.5" x="40" y="63" fill="#ff7575"/><circle cx="52.5" cy="75.5" r="2.5" fill="#40396e"/><rect width="6" height="6" x="20" y="63" fill="#70bfff"/><rect width="6" height="6" x="29" y="63" fill="#70bfff"/><rect width="6" height="6" x="29" y="72" fill="#70bfff"/><rect width="6" height="6" x="20" y="72" fill="#70bfff"/><path fill="#40396e" d="M88.5,88h-76c-0.398,0-0.779-0.158-1.061-0.439C11.157,87.279,11,86.897,11,86.499l0.014-22.851	l-2.835,1.439c-0.465,0.234-1.019,0.213-1.464-0.06C6.271,64.756,6,64.271,6,63.75V55c0-0.559,0.31-1.07,0.805-1.329l32.5-17	c0.436-0.229,0.955-0.229,1.391,0l4.317,2.258L45,23.501c0-0.52,0.269-1.003,0.711-1.276l21-13c0.482-0.299,1.096-0.299,1.578,0	l21,13C89.731,22.498,90,22.98,90,23.5v63C90,87.328,89.328,88,88.5,88z M14.001,85H87V24.336L67.5,12.264L48.001,24.335	l0.014,17.07c0,0.524-0.273,1.012-0.723,1.284s-1.007,0.289-1.473,0.046L40,39.692L9,55.908v5.398l2.836-1.44	c0.464-0.236,1.019-0.214,1.464,0.06c0.444,0.273,0.715,0.758,0.715,1.279L14.001,85z"/><g><rect width="5" height="5" x="65" y="30" fill="#ffe385"/><rect width="5" height="5" x="54" y="30" fill="#ffe385"/><rect width="5" height="5" x="76" y="30" fill="#ffe385"/><rect width="5" height="5" x="65" y="41" fill="#ffe385"/><rect width="5" height="5" x="76" y="41" fill="#ffe385"/><rect width="5" height="5" x="76" y="52" fill="#ffe385"/><rect width="5" height="5" x="76" y="63" fill="#ffe385"/><rect width="5" height="5" x="76" y="74" fill="#ffe385"/></g></svg>